<svg xmlns="http://www.w3.org/2000/svg" xmlns:xlink="http://www.w3.org/1999/xlink" width="500" zoomAndPan="magnify" viewBox="0 0 375 374.999991" height="500" preserveAspectRatio="xMidYMid meet" version="1.0"><defs><g/><clipPath id="5eb55886e9"><path d="M 12 1.132812 L 211 1.132812 L 211 140 L 12 140 Z M 12 1.132812 " clip-rule="nonzero"/></clipPath><clipPath id="cf578df5ca"><path d="M 88 86 L 140 86 L 140 119 L 88 119 Z M 88 86 " clip-rule="nonzero"/></clipPath><clipPath id="07554672b5"><path d="M 176.554688 79.355469 C 168.273438 80.46875 163.238281 81.425781 161.070312 82.992188 C 157.914062 85.277344 155.554688 89.535156 163.035156 96.652344 C 173.453125 106.554688 173.660156 122.957031 156.261719 132.585938 C 136.769531 143.375 78.8125 143.699219 39.851562 112.25 C 0.199219 80.238281 13.566406 46.914062 22.441406 35.441406 C 31.320312 23.972656 48.765625 1.136719 101.746094 1.816406 C 154.730469 2.5 188.996094 18.828125 199.453125 30.121094 C 209.480469 40.945312 216.265625 51.855469 202.53125 66.757812 C 196.738281 73.050781 190.886719 77.429688 176.554688 79.355469 Z M 107.121094 93.636719 C 95.144531 94.59375 91.421875 99.882812 90.355469 104.285156 C 89.078125 109.570312 91.769531 119.152344 115.292969 119.796875 C 138.910156 120.433594 141.136719 110.203125 137.785156 104.476562 C 134.222656 98.351562 122.664062 92.394531 107.121094 93.636719 Z M 107.121094 93.636719 " clip-rule="evenodd"/></clipPath><clipPath id="83f704e199"><path d="M 12.90625 40 L 171 40 L 171 139.1875 L 12.90625 139.1875 Z M 12.90625 40 " clip-rule="nonzero"/></clipPath><clipPath id="db72fce5d8"><path d="M 176.554688 79.355469 C 168.273438 80.46875 163.238281 81.425781 161.070312 82.992188 C 157.914062 85.277344 155.554688 89.535156 163.035156 96.652344 C 173.453125 106.554688 173.660156 122.957031 156.261719 132.585938 C 136.769531 143.375 78.8125 143.699219 39.851562 112.25 C 0.199219 80.238281 13.566406 46.914062 22.441406 35.441406 C 31.320312 23.972656 48.765625 1.136719 101.746094 1.816406 C 154.730469 2.5 188.996094 18.828125 199.453125 30.121094 C 209.480469 40.945312 216.265625 51.855469 202.53125 66.757812 C 196.738281 73.050781 190.886719 77.429688 176.554688 79.355469 Z M 107.121094 93.636719 C 95.144531 94.59375 91.421875 99.882812 90.355469 104.285156 C 89.078125 109.570312 91.769531 119.152344 115.292969 119.796875 C 138.910156 120.433594 141.136719 110.203125 137.785156 104.476562 C 134.222656 98.351562 122.664062 92.394531 107.121094 93.636719 Z M 107.121094 93.636719 " clip-rule="evenodd"/></clipPath><clipPath id="b8237389a8"><path d="M 148 27 L 188 27 L 188 56 L 148 56 Z M 148 27 " clip-rule="nonzero"/></clipPath><clipPath id="29f5fa84c4"><path d="M 176.554688 79.355469 C 168.273438 80.46875 163.238281 81.425781 161.070312 82.992188 C 157.914062 85.277344 155.554688 89.535156 163.035156 96.652344 C 173.453125 106.554688 173.660156 122.957031 156.261719 132.585938 C 136.769531 143.375 78.8125 143.699219 39.851562 112.25 C 0.199219 80.238281 13.566406 46.914062 22.441406 35.441406 C 31.320312 23.972656 48.765625 1.136719 101.746094 1.816406 C 154.730469 2.5 188.996094 18.828125 199.453125 30.121094 C 209.480469 40.945312 216.265625 51.855469 202.53125 66.757812 C 196.738281 73.050781 190.886719 77.429688 176.554688 79.355469 Z M 107.121094 93.636719 C 95.144531 94.59375 91.421875 99.882812 90.355469 104.285156 C 89.078125 109.570312 91.769531 119.152344 115.292969 119.796875 C 138.910156 120.433594 141.136719 110.203125 137.785156 104.476562 C 134.222656 98.351562 122.664062 92.394531 107.121094 93.636719 Z M 107.121094 93.636719 " clip-rule="evenodd"/></clipPath><clipPath id="06ebe41ea9"><path d="M 103 12 L 143 12 L 143 41 L 103 41 Z M 103 12 " clip-rule="nonzero"/></clipPath><clipPath id="bdb9ebaf41"><path d="M 176.554688 79.355469 C 168.273438 80.46875 163.238281 81.425781 161.070312 82.992188 C 157.914062 85.277344 155.554688 89.535156 163.035156 96.652344 C 173.453125 106.554688 173.660156 122.957031 156.261719 132.585938 C 136.769531 143.375 78.8125 143.699219 39.851562 112.25 C 0.199219 80.238281 13.566406 46.914062 22.441406 35.441406 C 31.320312 23.972656 48.765625 1.136719 101.746094 1.816406 C 154.730469 2.5 188.996094 18.828125 199.453125 30.121094 C 209.480469 40.945312 216.265625 51.855469 202.53125 66.757812 C 196.738281 73.050781 190.886719 77.429688 176.554688 79.355469 Z M 107.121094 93.636719 C 95.144531 94.59375 91.421875 99.882812 90.355469 104.285156 C 89.078125 109.570312 91.769531 119.152344 115.292969 119.796875 C 138.910156 120.433594 141.136719 110.203125 137.785156 104.476562 C 134.222656 98.351562 122.664062 92.394531 107.121094 93.636719 Z M 107.121094 93.636719 " clip-rule="evenodd"/></clipPath><clipPath id="47ea6363d3"><path d="M 56 14 L 96 14 L 96 42 L 56 42 Z M 56 14 " clip-rule="nonzero"/></clipPath><clipPath id="155ad0ab54"><path d="M 176.554688 79.355469 C 168.273438 80.46875 163.238281 81.425781 161.070312 82.992188 C 157.914062 85.277344 155.554688 89.535156 163.035156 96.652344 C 173.453125 106.554688 173.660156 122.957031 156.261719 132.585938 C 136.769531 143.375 78.8125 143.699219 39.851562 112.25 C 0.199219 80.238281 13.566406 46.914062 22.441406 35.441406 C 31.320312 23.972656 48.765625 1.136719 101.746094 1.816406 C 154.730469 2.5 188.996094 18.828125 199.453125 30.121094 C 209.480469 40.945312 216.265625 51.855469 202.53125 66.757812 C 196.738281 73.050781 190.886719 77.429688 176.554688 79.355469 Z M 107.121094 93.636719 C 95.144531 94.59375 91.421875 99.882812 90.355469 104.285156 C 89.078125 109.570312 91.769531 119.152344 115.292969 119.796875 C 138.910156 120.433594 141.136719 110.203125 137.785156 104.476562 C 134.222656 98.351562 122.664062 92.394531 107.121094 93.636719 Z M 107.121094 93.636719 " clip-rule="evenodd"/></clipPath><clipPath id="9342914d63"><path d="M 26 39 L 65 39 L 65 67 L 26 67 Z M 26 39 " clip-rule="nonzero"/></clipPath><clipPath id="fa9174d9b6"><path d="M 176.554688 79.355469 C 168.273438 80.46875 163.238281 81.425781 161.070312 82.992188 C 157.914062 85.277344 155.554688 89.535156 163.035156 96.652344 C 173.453125 106.554688 173.660156 122.957031 156.261719 132.585938 C 136.769531 143.375 78.8125 143.699219 39.851562 112.25 C 0.199219 80.238281 13.566406 46.914062 22.441406 35.441406 C 31.320312 23.972656 48.765625 1.136719 101.746094 1.816406 C 154.730469 2.5 188.996094 18.828125 199.453125 30.121094 C 209.480469 40.945312 216.265625 51.855469 202.53125 66.757812 C 196.738281 73.050781 190.886719 77.429688 176.554688 79.355469 Z M 107.121094 93.636719 C 95.144531 94.59375 91.421875 99.882812 90.355469 104.285156 C 89.078125 109.570312 91.769531 119.152344 115.292969 119.796875 C 138.910156 120.433594 141.136719 110.203125 137.785156 104.476562 C 134.222656 98.351562 122.664062 92.394531 107.121094 93.636719 Z M 107.121094 93.636719 " clip-rule="evenodd"/></clipPath><clipPath id="f6c2112ca2"><path d="M 43 70 L 82 70 L 82 98 L 43 98 Z M 43 70 " clip-rule="nonzero"/></clipPath><clipPath id="adf8e4b246"><path d="M 176.554688 79.355469 C 168.273438 80.46875 163.238281 81.425781 161.070312 82.992188 C 157.914062 85.277344 155.554688 89.535156 163.035156 96.652344 C 173.453125 106.554688 173.660156 122.957031 156.261719 132.585938 C 136.769531 143.375 78.8125 143.699219 39.851562 112.25 C 0.199219 80.238281 13.566406 46.914062 22.441406 35.441406 C 31.320312 23.972656 48.765625 1.136719 101.746094 1.816406 C 154.730469 2.5 188.996094 18.828125 199.453125 30.121094 C 209.480469 40.945312 216.265625 51.855469 202.53125 66.757812 C 196.738281 73.050781 190.886719 77.429688 176.554688 79.355469 Z M 107.121094 93.636719 C 95.144531 94.59375 91.421875 99.882812 90.355469 104.285156 C 89.078125 109.570312 91.769531 119.152344 115.292969 119.796875 C 138.910156 120.433594 141.136719 110.203125 137.785156 104.476562 C 134.222656 98.351562 122.664062 92.394531 107.121094 93.636719 Z M 107.121094 93.636719 " clip-rule="evenodd"/></clipPath><clipPath id="faaec1ad88"><path d="M 16 60 L 30 60 L 30 83 L 16 83 Z M 16 60 " clip-rule="nonzero"/></clipPath><clipPath id="73ec8d8f5d"><path d="M 176.554688 79.355469 C 168.273438 80.46875 163.238281 81.425781 161.070312 82.992188 C 157.914062 85.277344 155.554688 89.535156 163.035156 96.652344 C 173.453125 106.554688 173.660156 122.957031 156.261719 132.585938 C 136.769531 143.375 78.8125 143.699219 39.851562 112.25 C 0.199219 80.238281 13.566406 46.914062 22.441406 35.441406 C 31.320312 23.972656 48.765625 1.136719 101.746094 1.816406 C 154.730469 2.5 188.996094 18.828125 199.453125 30.121094 C 209.480469 40.945312 216.265625 51.855469 202.53125 66.757812 C 196.738281 73.050781 190.886719 77.429688 176.554688 79.355469 Z M 107.121094 93.636719 C 95.144531 94.59375 91.421875 99.882812 90.355469 104.285156 C 89.078125 109.570312 91.769531 119.152344 115.292969 119.796875 C 138.910156 120.433594 141.136719 110.203125 137.785156 104.476562 C 134.222656 98.351562 122.664062 92.394531 107.121094 93.636719 Z M 107.121094 93.636719 " clip-rule="evenodd"/></clipPath><clipPath id="d1722c7207"><path d="M 191 31 L 205 31 L 205 62 L 191 62 Z M 191 31 " clip-rule="nonzero"/></clipPath><clipPath id="3a85ae89e1"><path d="M 176.554688 79.355469 C 168.273438 80.46875 163.238281 81.425781 161.070312 82.992188 C 157.914062 85.277344 155.554688 89.535156 163.035156 96.652344 C 173.453125 106.554688 173.660156 122.957031 156.261719 132.585938 C 136.769531 143.375 78.8125 143.699219 39.851562 112.25 C 0.199219 80.238281 13.566406 46.914062 22.441406 35.441406 C 31.320312 23.972656 48.765625 1.136719 101.746094 1.816406 C 154.730469 2.5 188.996094 18.828125 199.453125 30.121094 C 209.480469 40.945312 216.265625 51.855469 202.53125 66.757812 C 196.738281 73.050781 190.886719 77.429688 176.554688 79.355469 Z M 107.121094 93.636719 C 95.144531 94.59375 91.421875 99.882812 90.355469 104.285156 C 89.078125 109.570312 91.769531 119.152344 115.292969 119.796875 C 138.910156 120.433594 141.136719 110.203125 137.785156 104.476562 C 134.222656 98.351562 122.664062 92.394531 107.121094 93.636719 Z M 107.121094 93.636719 " clip-rule="evenodd"/></clipPath><clipPath id="cb0ec602cb"><path d="M 186 62 L 197 62 L 197 70 L 186 70 Z M 186 62 " clip-rule="nonzero"/></clipPath><clipPath id="c94478b0d4"><path d="M 176.554688 79.355469 C 168.273438 80.46875 163.238281 81.425781 161.070312 82.992188 C 157.914062 85.277344 155.554688 89.535156 163.035156 96.652344 C 173.453125 106.554688 173.660156 122.957031 156.261719 132.585938 C 136.769531 143.375 78.8125 143.699219 39.851562 112.25 C 0.199219 80.238281 13.566406 46.914062 22.441406 35.441406 C 31.320312 23.972656 48.765625 1.136719 101.746094 1.816406 C 154.730469 2.5 188.996094 18.828125 199.453125 30.121094 C 209.480469 40.945312 216.265625 51.855469 202.53125 66.757812 C 196.738281 73.050781 190.886719 77.429688 176.554688 79.355469 Z M 107.121094 93.636719 C 95.144531 94.59375 91.421875 99.882812 90.355469 104.285156 C 89.078125 109.570312 91.769531 119.152344 115.292969 119.796875 C 138.910156 120.433594 141.136719 110.203125 137.785156 104.476562 C 134.222656 98.351562 122.664062 92.394531 107.121094 93.636719 Z M 107.121094 93.636719 " clip-rule="evenodd"/></clipPath><clipPath id="e154331be1"><rect x="0" width="357" y="0" height="145"/></clipPath></defs><rect x="-37.5" width="450" fill="#ffffff" y="-37.499999" height="449.999989" fill-opacity="1"/><rect x="-37.5" width="450" fill="#ffffff" y="-37.499999" height="449.999989" fill-opacity="1"/><g transform="matrix(1, 0, 0, 1, 9, 115)"><g clip-path="url(#e154331be1)"><path fill="#9c7c4e" d="M 210.007812 47.476562 C 210.199219 49.078125 211.695312 62.09375 208.992188 67.140625 C 206.824219 71.171875 201.226562 77.441406 195.328125 80.457031 C 180.859375 87.859375 155.496094 84.019531 156.308594 99.464844 C 156.644531 105.863281 138.613281 81.199219 149.441406 66.808594 C 163.273438 48.410156 187.5625 55.789062 210.007812 47.476562 Z M 210.007812 47.476562 " fill-opacity="1" fill-rule="evenodd"/><g clip-path="url(#5eb55886e9)"><path fill="#fed7a0" d="M 176.554688 79.355469 C 168.273438 80.46875 163.238281 81.425781 161.070312 82.992188 C 157.914062 85.277344 155.554688 89.535156 163.03125 96.652344 C 173.453125 106.554688 173.660156 122.957031 156.261719 132.585938 C 136.769531 143.375 78.8125 143.699219 39.851562 112.25 C 0.199219 80.238281 13.566406 46.914062 22.441406 35.441406 C 31.320312 23.972656 48.765625 1.136719 101.746094 1.816406 C 154.730469 2.5 188.996094 18.828125 199.453125 30.121094 C 209.480469 40.945312 216.265625 51.855469 202.53125 66.757812 C 196.738281 73.050781 190.886719 77.429688 176.554688 79.355469 Z M 107.121094 93.636719 C 95.144531 94.59375 91.421875 99.882812 90.355469 104.285156 C 89.078125 109.570312 91.769531 119.152344 115.292969 119.796875 C 138.910156 120.433594 141.136719 110.203125 137.785156 104.476562 C 134.222656 98.351562 122.664062 92.394531 107.121094 93.636719 Z M 107.121094 93.636719 " fill-opacity="1" fill-rule="evenodd"/></g><g clip-path="url(#cf578df5ca)"><g clip-path="url(#07554672b5)"><path fill="#9c7c4e" d="M 91.492188 111.363281 C 91.242188 110.277344 83.203125 97.632812 96.769531 90.226562 C 100.539062 88.160156 113.628906 82.535156 132.089844 92.96875 C 143.074219 99.175781 140.179688 111.304688 136.828125 114.34375 C 129.269531 121.171875 99.59375 118.519531 91.492188 111.363281 Z M 91.492188 111.363281 " fill-opacity="1" fill-rule="evenodd"/></g></g><g clip-path="url(#83f704e199)"><g clip-path="url(#db72fce5d8)"><path fill="#9c7c4e" d="M 12.917969 40.132812 C 10.25 57.824219 11.328125 76.398438 35.460938 100.503906 C 54.078125 119.09375 78.03125 125.300781 99.628906 130.3125 C 126.683594 136.605469 150.722656 133.421875 162.386719 121.03125 C 166.011719 117.179688 170.199219 113.0625 169.0625 100.550781 C 182.1875 141.019531 119.707031 160.46875 82.960938 149.261719 C 62.226562 142.933594 28.222656 121.28125 18.855469 101.976562 C 15.597656 95.289062 -2.550781 67.96875 12.917969 40.132812 Z M 12.917969 40.132812 " fill-opacity="1" fill-rule="evenodd"/></g></g><g clip-path="url(#b8237389a8)"><g clip-path="url(#29f5fa84c4)"><path fill="#ea4a32" d="M 168.179688 27.964844 C 177.476562 28.144531 187.132812 35.683594 187.132812 42.773438 C 187.132812 49.867188 179.582031 55.621094 170.285156 55.621094 C 160.988281 55.621094 148.472656 48.015625 148.472656 40.921875 C 148.472656 33.828125 154.15625 27.703125 168.179688 27.964844 Z M 168.179688 27.964844 " fill-opacity="1" fill-rule="evenodd"/></g></g><g clip-path="url(#06ebe41ea9)"><g clip-path="url(#bdb9ebaf41)"><path fill="#ff910c" d="M 122.066406 12.882812 C 131.316406 11.921875 141.820312 18.21875 142.691406 25.261719 C 143.558594 32.300781 136.769531 38.933594 127.542969 40.070312 C 118.316406 41.207031 104.960938 35.1875 104.09375 28.148438 C 103.226562 21.109375 108.117188 14.335938 122.066406 12.882812 Z M 122.066406 12.882812 " fill-opacity="1" fill-rule="evenodd"/></g></g><g clip-path="url(#47ea6363d3)"><g clip-path="url(#155ad0ab54)"><path fill="#00bae4" d="M 72.992188 14.875 C 82.054688 12.789062 93.253906 17.746094 94.980469 24.625 C 96.707031 31.507812 90.785156 38.925781 81.769531 41.1875 C 72.753906 43.449219 58.761719 39.117188 57.035156 32.238281 C 55.304688 25.355469 59.328125 18.035156 72.992188 14.875 Z M 72.992188 14.875 " fill-opacity="1" fill-rule="evenodd"/></g></g><g clip-path="url(#9342914d63)"><g clip-path="url(#fa9174d9b6)"><path fill="#c3dc4a" d="M 42.660156 39.859375 C 51.722656 37.769531 62.921875 42.730469 64.648438 49.609375 C 66.375 56.488281 60.453125 63.90625 51.4375 66.167969 C 42.421875 68.433594 28.429688 64.101562 26.703125 57.21875 C 24.972656 50.339844 28.996094 43.015625 42.660156 39.859375 Z M 42.660156 39.859375 " fill-opacity="1" fill-rule="evenodd"/></g></g><g clip-path="url(#f6c2112ca2)"><g clip-path="url(#adf8e4b246)"><path fill="#edcd0c" d="M 59.640625 70.980469 C 68.699219 68.890625 79.898438 73.851562 81.628906 80.730469 C 83.355469 87.609375 77.433594 95.027344 68.417969 97.289062 C 59.398438 99.554688 45.40625 95.222656 43.679688 88.339844 C 41.953125 81.460938 45.972656 74.136719 59.640625 70.980469 Z M 59.640625 70.980469 " fill-opacity="1" fill-rule="evenodd"/></g></g><g clip-path="url(#faaec1ad88)"><g clip-path="url(#73ec8d8f5d)"><path fill="#fff7ec" d="M 20.78125 62.175781 C 20.863281 62.75 21.066406 64.117188 22.058594 66.519531 C 22.179688 66.808594 22.550781 67.726562 23.257812 69.164062 C 23.328125 69.292969 23.746094 70.203125 24.476562 71.542969 C 24.511719 71.617188 24.597656 71.78125 24.8125 72.175781 L 25.265625 73.039062 C 25.554688 73.589844 25.746094 73.925781 25.816406 74.066406 C 26.582031 75.492188 27.195312 76.496094 27.277344 76.640625 C 27.277344 76.640625 28.164062 78.195312 28.929688 79.320312 C 28.953125 79.34375 28.953125 79.34375 28.964844 79.367188 C 29.046875 79.472656 29.046875 79.472656 29.121094 79.582031 C 29.15625 79.628906 29.179688 79.691406 29.214844 79.75 C 29.238281 79.808594 29.261719 79.855469 29.289062 79.917969 C 29.3125 79.976562 29.324219 80.035156 29.347656 80.097656 C 29.359375 80.15625 29.371094 80.214844 29.382812 80.277344 C 29.394531 80.335938 29.394531 80.394531 29.40625 80.457031 C 29.40625 80.515625 29.40625 80.585938 29.40625 80.648438 C 29.40625 80.707031 29.394531 80.765625 29.394531 80.824219 C 29.382812 80.886719 29.371094 80.945312 29.359375 81.003906 C 29.347656 81.066406 29.335938 81.125 29.3125 81.183594 C 29.289062 81.234375 29.273438 81.292969 29.25 81.351562 C 29.226562 81.414062 29.191406 81.460938 29.167969 81.519531 C 29.132812 81.566406 29.097656 81.628906 29.070312 81.675781 C 29.035156 81.722656 28.988281 81.769531 28.953125 81.820312 C 28.917969 81.867188 28.867188 81.914062 28.820312 81.960938 L 28.675781 82.082031 C 28.617188 82.128906 28.570312 82.164062 28.507812 82.203125 C 28.460938 82.238281 28.402344 82.261719 28.355469 82.285156 C 28.292969 82.320312 28.234375 82.34375 28.175781 82.371094 C 28.113281 82.382812 28.054688 82.40625 27.996094 82.417969 C 27.933594 82.441406 27.875 82.453125 27.816406 82.464844 C 27.753906 82.464844 27.695312 82.476562 27.636719 82.476562 C 27.578125 82.488281 27.515625 82.488281 27.457031 82.488281 C 27.398438 82.476562 27.335938 82.476562 27.277344 82.464844 C 27.21875 82.464844 27.15625 82.453125 27.097656 82.441406 C 27.039062 82.429688 26.976562 82.40625 26.917969 82.394531 C 26.859375 82.371094 26.796875 82.34375 26.75 82.320312 C 26.691406 82.296875 26.632812 82.273438 26.582031 82.238281 C 26.523438 82.214844 26.476562 82.179688 26.425781 82.140625 C 26.367188 82.105469 26.320312 82.070312 26.273438 82.035156 C 26.222656 81.988281 26.175781 81.949219 26.140625 81.902344 C 26.042969 81.808594 26.042969 81.808594 25.972656 81.710938 C 25.949219 81.675781 25.949219 81.675781 25.925781 81.640625 C 25.125 80.695312 24.238281 79.488281 23.808594 78.898438 C 23.769531 78.851562 23.375 78.289062 22.921875 77.621094 C 22.851562 77.511719 22.429688 76.890625 22.023438 76.269531 C 22 76.222656 21.675781 75.71875 21.320312 75.132812 C 21.222656 74.976562 21.210938 74.953125 21.007812 74.605469 C 20.746094 74.152344 20.503906 73.734375 20.503906 73.722656 C 20.492188 73.722656 20.242188 73.230469 19.964844 72.691406 C 19.800781 72.367188 19.523438 71.832031 19.199219 71.148438 C 19.152344 71.066406 18.984375 70.683594 18.855469 70.382812 C 18.699219 70.023438 18.328125 69.1875 17.96875 68.195312 C 17.933594 68.097656 17.835938 67.835938 17.789062 67.691406 C 17.226562 66.078125 16.773438 64.355469 16.628906 62.691406 C 16.628906 62.65625 16.628906 62.621094 16.617188 62.558594 C 16.617188 62.453125 16.617188 62.453125 16.617188 62.34375 C 16.617188 62.273438 16.628906 62.214844 16.628906 62.140625 C 16.640625 62.070312 16.652344 62 16.675781 61.9375 C 16.6875 61.867188 16.699219 61.808594 16.722656 61.734375 C 16.746094 61.675781 16.773438 61.601562 16.796875 61.542969 C 16.832031 61.484375 16.855469 61.425781 16.890625 61.363281 C 16.925781 61.304688 16.964844 61.246094 17 61.195312 C 17.035156 61.136719 17.070312 61.089844 17.117188 61.027344 C 17.15625 60.980469 17.203125 60.933594 17.25 60.886719 C 17.296875 60.835938 17.347656 60.789062 17.40625 60.753906 C 17.453125 60.707031 17.5 60.671875 17.5625 60.632812 C 17.621094 60.585938 17.667969 60.550781 17.730469 60.527344 C 17.789062 60.492188 17.847656 60.46875 17.910156 60.429688 C 17.980469 60.40625 18.039062 60.382812 18.101562 60.371094 C 18.171875 60.347656 18.230469 60.335938 18.304688 60.3125 C 18.375 60.300781 18.433594 60.289062 18.507812 60.289062 C 18.578125 60.277344 18.648438 60.277344 18.722656 60.277344 C 18.792969 60.277344 18.867188 60.289062 18.925781 60.289062 C 18.996094 60.300781 19.070312 60.3125 19.128906 60.324219 C 19.199219 60.335938 19.273438 60.359375 19.332031 60.371094 C 19.390625 60.394531 19.464844 60.417969 19.523438 60.441406 C 19.582031 60.46875 19.644531 60.503906 19.703125 60.539062 C 19.761719 60.5625 19.824219 60.597656 19.871094 60.632812 C 19.929688 60.683594 19.992188 60.71875 20.039062 60.765625 C 20.085938 60.800781 20.132812 60.851562 20.183594 60.898438 C 20.230469 60.945312 20.277344 60.992188 20.324219 61.042969 C 20.359375 61.101562 20.398438 61.148438 20.445312 61.207031 C 20.480469 61.269531 20.515625 61.316406 20.539062 61.375 C 20.578125 61.4375 20.613281 61.507812 20.636719 61.566406 C 20.683594 61.699219 20.695312 61.746094 20.707031 61.757812 C 20.757812 61.960938 20.730469 61.972656 20.78125 62.175781 Z M 20.78125 62.175781 " fill-opacity="0.76" fill-rule="evenodd"/></g></g><g clip-path="url(#d1722c7207)"><g clip-path="url(#3a85ae89e1)"><path fill="#fff7ec" d="M 199.980469 47.332031 C 199.863281 46.722656 199.597656 45.480469 198.929688 43.875 C 198.820312 43.625 198.4375 42.644531 197.695312 41.351562 C 197.386719 40.824219 197.132812 40.441406 196.992188 40.214844 C 195.699219 38.242188 194.105469 36.484375 192.539062 35.226562 C 192.527344 35.214844 192.503906 35.191406 192.445312 35.144531 C 192.429688 35.132812 192.359375 35.082031 192.289062 35.011719 C 192.226562 34.964844 192.179688 34.90625 192.144531 34.855469 C 192.097656 34.796875 192.046875 34.75 192.011719 34.6875 C 191.976562 34.628906 191.941406 34.582031 191.90625 34.523438 C 191.871094 34.460938 191.84375 34.402344 191.808594 34.332031 C 191.785156 34.269531 191.761719 34.210938 191.738281 34.152344 C 191.714844 34.078125 191.703125 34.019531 191.679688 33.949219 C 191.664062 33.886719 191.652344 33.816406 191.640625 33.757812 C 191.640625 33.683594 191.628906 33.625 191.628906 33.550781 C 191.628906 33.492188 191.628906 33.421875 191.628906 33.347656 C 191.628906 33.289062 191.640625 33.21875 191.640625 33.15625 C 191.652344 33.085938 191.664062 33.027344 191.691406 32.953125 C 191.703125 32.894531 191.726562 32.824219 191.75 32.761719 C 191.761719 32.703125 191.796875 32.632812 191.820312 32.570312 C 191.855469 32.511719 191.882812 32.453125 191.917969 32.390625 L 192.035156 32.226562 C 192.085938 32.164062 192.121094 32.105469 192.167969 32.058594 C 192.214844 32.007812 192.265625 31.960938 192.324219 31.914062 C 192.371094 31.867188 192.417969 31.832031 192.480469 31.792969 C 192.539062 31.746094 192.585938 31.710938 192.648438 31.675781 C 192.707031 31.652344 192.765625 31.613281 192.828125 31.589844 C 192.886719 31.566406 192.957031 31.542969 193.019531 31.519531 C 193.078125 31.496094 193.148438 31.472656 193.210938 31.460938 C 193.28125 31.449219 193.339844 31.433594 193.414062 31.421875 C 193.472656 31.410156 193.542969 31.410156 193.605469 31.410156 C 193.675781 31.398438 193.746094 31.398438 193.808594 31.410156 C 193.878906 31.410156 193.9375 31.410156 194.011719 31.421875 C 194.082031 31.433594 194.140625 31.449219 194.214844 31.460938 C 194.273438 31.484375 194.347656 31.496094 194.40625 31.519531 C 194.476562 31.542969 194.539062 31.566406 194.597656 31.601562 C 194.667969 31.625 194.730469 31.664062 194.789062 31.699219 C 194.894531 31.757812 194.894531 31.757812 195.003906 31.84375 C 195.949219 32.535156 197.027344 33.46875 198.078125 34.582031 C 198.964844 35.515625 199.851562 36.578125 200.722656 37.824219 C 200.808594 37.941406 200.9375 38.144531 200.949219 38.171875 C 202.136719 39.953125 202.816406 41.449219 203.09375 42.09375 C 203.09375 42.09375 203.1875 42.308594 203.296875 42.597656 C 203.964844 44.28125 204.277344 45.65625 204.433594 46.507812 C 204.433594 46.53125 204.492188 46.855469 204.539062 47.214844 C 204.589844 47.5 204.648438 48.039062 204.695312 48.71875 C 204.695312 48.804688 204.707031 49.042969 204.707031 49.234375 C 204.730469 50.179688 204.683594 50.863281 204.648438 51.257812 C 204.648438 51.292969 204.613281 51.722656 204.539062 52.175781 C 204.371094 53.289062 204.144531 54.175781 203.941406 54.84375 C 203.679688 55.730469 203.390625 56.410156 203.378906 56.4375 C 202.78125 57.871094 201.957031 59.390625 200.757812 60.980469 C 200.746094 60.992188 200.664062 61.125 200.664062 61.125 C 200.617188 61.171875 200.578125 61.234375 200.542969 61.28125 C 200.496094 61.328125 200.460938 61.363281 200.414062 61.410156 C 200.363281 61.460938 200.316406 61.496094 200.269531 61.53125 C 200.207031 61.566406 200.160156 61.601562 200.113281 61.640625 C 200.054688 61.675781 200.003906 61.699219 199.945312 61.722656 C 199.898438 61.746094 199.839844 61.769531 199.777344 61.792969 C 199.71875 61.820312 199.671875 61.84375 199.609375 61.855469 C 199.550781 61.867188 199.492188 61.878906 199.429688 61.890625 C 199.371094 61.902344 199.3125 61.914062 199.25 61.914062 C 199.179688 61.914062 199.121094 61.914062 199.058594 61.914062 C 199 61.914062 198.941406 61.914062 198.878906 61.902344 C 198.820312 61.902344 198.761719 61.890625 198.703125 61.878906 C 198.640625 61.855469 198.582031 61.84375 198.523438 61.832031 C 198.460938 61.808594 198.402344 61.78125 198.34375 61.757812 C 198.28125 61.734375 198.234375 61.699219 198.175781 61.675781 L 198.007812 61.566406 C 197.960938 61.53125 197.910156 61.496094 197.863281 61.449219 C 197.816406 61.398438 197.769531 61.363281 197.71875 61.316406 C 197.683594 61.269531 197.636719 61.21875 197.601562 61.171875 C 197.566406 61.125 197.527344 61.066406 197.492188 61.015625 C 197.46875 60.96875 197.433594 60.910156 197.410156 60.863281 C 197.386719 60.800781 197.359375 60.742188 197.335938 60.683594 C 197.3125 60.632812 197.300781 60.574219 197.277344 60.515625 C 197.265625 60.453125 197.253906 60.394531 197.242188 60.335938 C 197.230469 60.277344 197.230469 60.214844 197.21875 60.15625 C 197.21875 60.097656 197.21875 60.035156 197.21875 59.976562 C 197.21875 59.90625 197.21875 59.84375 197.230469 59.785156 C 197.242188 59.726562 197.253906 59.664062 197.265625 59.605469 C 197.277344 59.546875 197.289062 59.484375 197.3125 59.425781 C 197.324219 59.367188 197.347656 59.308594 197.375 59.246094 C 197.410156 59.199219 197.433594 59.140625 197.46875 59.078125 C 197.527344 58.972656 197.527344 58.972656 197.613281 58.863281 C 197.648438 58.804688 197.648438 58.804688 197.683594 58.757812 C 198.652344 57.25 199.214844 55.910156 199.5625 54.832031 C 199.660156 54.546875 199.96875 53.613281 200.148438 52.34375 C 200.246094 51.664062 200.257812 51.148438 200.269531 50.875 C 200.304688 49.941406 200.234375 49.246094 200.207031 48.972656 C 200.148438 48.183594 200.015625 47.570312 199.980469 47.332031 Z M 199.980469 47.332031 " fill-opacity="0.76" fill-rule="evenodd"/></g></g><g clip-path="url(#cb0ec602cb)"><g clip-path="url(#c94478b0d4)"><path fill="#fff7ec" d="M 190.050781 65.277344 C 190.265625 65.179688 190.503906 65.074219 190.769531 64.917969 C 190.792969 64.90625 191.03125 64.785156 191.355469 64.558594 C 191.367188 64.546875 191.402344 64.523438 191.484375 64.472656 C 191.582031 64.402344 191.628906 64.378906 191.652344 64.355469 C 191.832031 64.246094 191.964844 64.152344 192 64.128906 C 192.085938 64.054688 192.324219 63.898438 192.695312 63.578125 C 192.777344 63.515625 193.007812 63.335938 193.542969 62.859375 C 193.542969 62.859375 193.582031 62.824219 193.582031 62.824219 L 193.605469 62.789062 C 193.675781 62.714844 193.675781 62.714844 193.734375 62.65625 C 193.785156 62.609375 193.832031 62.558594 193.878906 62.523438 C 193.925781 62.488281 193.988281 62.453125 194.035156 62.417969 C 194.082031 62.382812 194.140625 62.34375 194.191406 62.320312 C 194.25 62.296875 194.308594 62.273438 194.359375 62.25 C 194.417969 62.226562 194.476562 62.203125 194.539062 62.191406 C 194.597656 62.164062 194.65625 62.152344 194.71875 62.140625 C 194.777344 62.128906 194.835938 62.128906 194.894531 62.117188 C 194.957031 62.117188 195.015625 62.105469 195.074219 62.105469 C 195.136719 62.105469 195.195312 62.117188 195.253906 62.117188 C 195.328125 62.128906 195.386719 62.128906 195.445312 62.140625 C 195.507812 62.152344 195.566406 62.175781 195.625 62.191406 C 195.6875 62.214844 195.734375 62.226562 195.792969 62.25 C 195.855469 62.273438 195.914062 62.308594 195.960938 62.332031 C 196.019531 62.355469 196.082031 62.394531 196.128906 62.429688 L 196.285156 62.546875 C 196.332031 62.597656 196.378906 62.632812 196.429688 62.679688 C 196.476562 62.726562 196.511719 62.777344 196.546875 62.824219 C 196.59375 62.871094 196.632812 62.917969 196.667969 62.96875 C 196.691406 63.027344 196.726562 63.074219 196.75 63.132812 C 196.785156 63.183594 196.8125 63.242188 196.835938 63.300781 C 196.859375 63.363281 196.871094 63.421875 196.894531 63.46875 C 196.90625 63.527344 196.917969 63.589844 196.929688 63.648438 C 196.941406 63.707031 196.953125 63.769531 196.953125 63.828125 C 196.964844 63.886719 196.964844 63.960938 196.964844 64.019531 C 196.964844 64.078125 196.964844 64.140625 196.953125 64.199219 C 196.953125 64.257812 196.941406 64.320312 196.929688 64.378906 C 196.917969 64.4375 196.90625 64.5 196.882812 64.558594 C 196.871094 64.617188 196.847656 64.675781 196.824219 64.738281 C 196.796875 64.785156 196.773438 64.84375 196.738281 64.90625 C 196.714844 64.964844 196.679688 65.011719 196.644531 65.058594 C 196.582031 65.15625 196.582031 65.15625 196.511719 65.238281 C 196.5 65.25 196.5 65.25 196.476562 65.300781 C 196.390625 65.429688 196.273438 65.621094 196.210938 65.71875 C 196.199219 65.730469 196.09375 65.898438 196.082031 65.898438 C 196.082031 65.910156 196.082031 65.910156 196.082031 65.910156 C 196.070312 65.933594 196.070312 65.933594 196.058594 65.957031 C 196.046875 65.957031 196.046875 65.957031 196.046875 65.957031 C 196.03125 65.980469 196.03125 65.980469 196.019531 66.003906 C 196.019531 66.003906 196.007812 66.003906 196.007812 66.015625 C 195.996094 66.042969 195.996094 66.042969 195.984375 66.066406 C 195.984375 66.066406 195.972656 66.066406 195.972656 66.066406 C 195.960938 66.089844 195.960938 66.089844 195.949219 66.113281 C 195.949219 66.113281 195.9375 66.113281 195.9375 66.113281 C 195.925781 66.148438 195.925781 66.148438 195.914062 66.171875 C 195.914062 66.171875 195.902344 66.171875 195.902344 66.171875 C 195.890625 66.195312 195.890625 66.195312 195.878906 66.21875 C 195.867188 66.21875 195.867188 66.21875 195.867188 66.21875 C 195.855469 66.246094 195.855469 66.246094 195.839844 66.269531 C 195.828125 66.28125 195.828125 66.28125 195.828125 66.28125 C 195.816406 66.304688 195.816406 66.304688 195.792969 66.328125 C 195.792969 66.339844 195.792969 66.339844 195.78125 66.351562 C 195.757812 66.375 195.757812 66.375 195.746094 66.398438 C 195.722656 66.425781 195.722656 66.4375 195.710938 66.460938 C 195.710938 66.460938 195.699219 66.460938 195.699219 66.460938 C 195.6875 66.484375 195.6875 66.484375 195.664062 66.507812 C 195.648438 66.53125 195.648438 66.53125 195.625 66.554688 C 195.601562 66.578125 195.601562 66.578125 195.589844 66.601562 C 195.566406 66.628906 195.566406 66.628906 195.554688 66.652344 C 195.554688 66.652344 195.542969 66.664062 195.542969 66.664062 C 195.53125 66.6875 195.53125 66.6875 195.507812 66.710938 C 195.496094 66.734375 195.496094 66.734375 195.46875 66.757812 C 195.445312 66.78125 195.445312 66.78125 195.433594 66.808594 C 195.410156 66.832031 195.410156 66.832031 195.386719 66.855469 C 195.386719 66.867188 195.375 66.867188 195.375 66.878906 C 195.363281 66.890625 195.363281 66.902344 195.351562 66.902344 C 195.339844 66.914062 195.339844 66.925781 195.328125 66.925781 C 195.328125 66.9375 195.316406 66.949219 195.316406 66.949219 C 195.316406 66.949219 195.316406 66.949219 195.304688 66.960938 C 195.304688 66.960938 195.304688 66.972656 195.292969 66.972656 C 195.292969 66.972656 195.292969 66.984375 195.292969 66.984375 C 195.277344 66.984375 195.277344 67 195.265625 67 C 195.265625 67 195.265625 67.011719 195.265625 67.011719 C 195.265625 67.011719 195.253906 67.023438 195.253906 67.023438 C 195.253906 67.035156 195.242188 67.035156 195.242188 67.035156 C 195.242188 67.035156 195.230469 67.046875 195.230469 67.046875 C 195.230469 67.058594 195.230469 67.058594 195.230469 67.058594 C 195.21875 67.058594 195.21875 67.070312 195.207031 67.082031 C 195.195312 67.082031 195.195312 67.09375 195.183594 67.105469 C 195.183594 67.105469 195.171875 67.117188 195.171875 67.128906 C 195.171875 67.128906 195.160156 67.128906 195.160156 67.128906 C 195.160156 67.128906 195.148438 67.140625 195.148438 67.152344 C 195.136719 67.152344 195.136719 67.164062 195.125 67.175781 C 195.113281 67.191406 195.113281 67.191406 195.101562 67.203125 C 195.101562 67.214844 195.085938 67.214844 195.085938 67.226562 C 195.085938 67.226562 195.074219 67.226562 195.074219 67.226562 C 195.074219 67.238281 195.0625 67.238281 195.0625 67.25 C 195.050781 67.261719 195.050781 67.261719 195.039062 67.273438 C 195.027344 67.285156 195.027344 67.285156 195.015625 67.296875 C 195.015625 67.308594 195.003906 67.308594 195.003906 67.320312 C 194.992188 67.320312 194.992188 67.320312 194.992188 67.320312 C 194.992188 67.332031 194.980469 67.332031 194.980469 67.34375 C 194.980469 67.34375 194.980469 67.34375 194.96875 67.34375 C 194.96875 67.34375 194.96875 67.355469 194.957031 67.355469 C 194.957031 67.367188 194.957031 67.367188 194.957031 67.367188 C 194.933594 67.382812 194.933594 67.382812 194.921875 67.40625 C 194.730469 67.609375 194.511719 67.800781 194.453125 67.859375 C 194.226562 68.050781 194.011719 68.230469 193.976562 68.253906 C 193.496094 68.589844 193.078125 68.816406 192.863281 68.925781 C 192.851562 68.9375 192.515625 69.101562 192.085938 69.257812 C 192.011719 69.28125 191.820312 69.367188 191.570312 69.4375 C 191.546875 69.449219 191.4375 69.484375 191.425781 69.484375 C 190.636719 69.714844 189.90625 69.832031 189.453125 69.894531 C 189.429688 69.894531 189.320312 69.90625 189.1875 69.917969 C 189.117188 69.917969 189.046875 69.917969 188.972656 69.90625 C 188.914062 69.90625 188.84375 69.894531 188.769531 69.882812 C 188.699219 69.882812 188.636719 69.855469 188.566406 69.84375 C 188.496094 69.832031 188.433594 69.808594 188.375 69.785156 C 188.304688 69.761719 188.242188 69.738281 188.183594 69.714844 C 188.113281 69.691406 188.050781 69.652344 187.992188 69.617188 C 187.933594 69.59375 187.886719 69.558594 187.824219 69.523438 C 187.765625 69.484375 187.71875 69.4375 187.65625 69.402344 C 187.609375 69.355469 187.5625 69.320312 187.515625 69.269531 C 187.464844 69.222656 187.417969 69.175781 187.382812 69.128906 C 187.335938 69.078125 187.296875 69.019531 187.261719 68.972656 C 187.214844 68.910156 187.179688 68.863281 187.15625 68.804688 C 187.117188 68.746094 187.09375 68.683594 187.070312 68.625 C 187.035156 68.566406 187.011719 68.503906 187 68.445312 C 186.976562 68.386719 186.964844 68.3125 186.953125 68.253906 C 186.941406 68.195312 186.925781 68.121094 186.914062 68.0625 C 186.914062 67.992188 186.914062 67.929688 186.914062 67.859375 C 186.914062 67.800781 186.914062 67.726562 186.925781 67.667969 C 186.941406 67.609375 186.953125 67.535156 186.964844 67.476562 C 186.976562 67.417969 187 67.34375 187.011719 67.285156 C 187.035156 67.226562 187.058594 67.164062 187.082031 67.105469 C 187.105469 67.046875 187.144531 66.984375 187.167969 66.925781 C 187.203125 66.867188 187.238281 66.808594 187.273438 66.746094 C 187.308594 66.699219 187.359375 66.640625 187.394531 66.589844 C 187.441406 66.53125 187.476562 66.484375 187.527344 66.4375 C 187.574219 66.386719 187.621094 66.339844 187.679688 66.292969 C 187.730469 66.246094 187.777344 66.207031 187.835938 66.160156 C 187.898438 66.125 187.957031 66.089844 188.015625 66.054688 C 188.078125 66.015625 188.136719 65.980469 188.195312 65.945312 C 188.253906 65.921875 188.328125 65.886719 188.386719 65.863281 C 188.519531 65.8125 188.519531 65.8125 188.664062 65.777344 C 189.40625 65.5625 189.835938 65.371094 190.050781 65.277344 Z M 190.050781 65.277344 " fill-opacity="0.76" fill-rule="evenodd"/></g></g><g fill="#000000" fill-opacity="1"><g transform="translate(162.885375, 112.30447)"><g/></g></g><g fill="#000000" fill-opacity="1"><g transform="translate(183.362927, 112.30447)"><g><path d="M 22.25 1.515625 C 21.539062 1.515625 20.421875 0.75 18.890625 -0.78125 C 17.472656 -0.101562 16.222656 0.40625 15.140625 0.75 C 14.066406 1.09375 13.15625 1.265625 12.40625 1.265625 C 8.695312 1.265625 5.914062 0.273438 4.0625 -1.703125 C 2.21875 -3.691406 1.296875 -6.660156 1.296875 -10.609375 C 1.296875 -14.304688 2.660156 -17.472656 5.390625 -20.109375 C 8.128906 -22.753906 11.40625 -24.078125 15.21875 -24.078125 C 16.675781 -24.078125 18.367188 -23.660156 20.296875 -22.828125 C 22.609375 -21.828125 23.765625 -20.664062 23.765625 -19.34375 C 23.765625 -18.789062 23.585938 -18.304688 23.234375 -17.890625 C 23.085938 -17.273438 22.96875 -16.5 22.875 -15.5625 C 22.789062 -14.632812 22.75 -13.550781 22.75 -12.3125 C 22.75 -9.375 22.957031 -7.257812 23.375 -5.96875 C 23.425781 -5.832031 23.78125 -5.035156 24.4375 -3.578125 C 25.039062 -2.253906 25.34375 -1.5 25.34375 -1.3125 C 25.34375 -0.5 25.03125 0.171875 24.40625 0.703125 C 23.78125 1.242188 23.0625 1.515625 22.25 1.515625 Z M 16.53125 -14.296875 C 16.53125 -14.785156 16.5625 -15.347656 16.625 -15.984375 C 16.695312 -16.628906 16.804688 -17.34375 16.953125 -18.125 C 16.640625 -18.28125 16.363281 -18.390625 16.125 -18.453125 C 15.882812 -18.523438 15.679688 -18.5625 15.515625 -18.5625 C 13.421875 -18.5625 11.585938 -17.742188 10.015625 -16.109375 C 8.453125 -14.472656 7.671875 -12.578125 7.671875 -10.421875 C 7.671875 -8.359375 8.039062 -6.804688 8.78125 -5.765625 C 9.519531 -4.734375 10.628906 -4.21875 12.109375 -4.21875 C 13.054688 -4.21875 13.957031 -4.375 14.8125 -4.6875 C 15.664062 -5.007812 16.46875 -5.476562 17.21875 -6.09375 C 16.757812 -9.75 16.53125 -12.484375 16.53125 -14.296875 Z M 16.53125 -14.296875 "/></g></g></g><g fill="#000000" fill-opacity="1"><g transform="translate(209.602994, 112.30447)"><g><path d="M 9.453125 -3.390625 C 9.453125 -0.472656 8.390625 0.984375 6.265625 0.984375 C 5.347656 0.984375 4.585938 0.691406 3.984375 0.109375 C 3.390625 -0.472656 3.09375 -1.222656 3.09375 -2.140625 L 3.09375 -34.03125 C 3.09375 -34.925781 3.414062 -35.65625 4.0625 -36.21875 C 4.675781 -36.738281 5.4375 -37 6.34375 -37 C 7.25 -37 7.992188 -36.726562 8.578125 -36.1875 C 9.160156 -35.644531 9.453125 -34.925781 9.453125 -34.03125 Z M 9.453125 -3.390625 "/></g></g></g><g fill="#000000" fill-opacity="1"><g transform="translate(222.538569, 112.30447)"><g><path d="M 13.96875 1.0625 C 10.300781 1.0625 7.296875 0.1875 4.953125 -1.5625 C 2.367188 -3.5 1.078125 -6.226562 1.078125 -9.75 C 1.078125 -13.632812 2.101562 -16.925781 4.15625 -19.625 C 6.425781 -22.601562 9.488281 -24.09375 13.34375 -24.09375 C 16.019531 -24.09375 18.242188 -23.660156 20.015625 -22.796875 C 22.335938 -21.660156 23.5 -19.894531 23.5 -17.5 C 23.5 -15.8125 22.550781 -14.3125 20.65625 -13 C 19.789062 -12.40625 18.0625 -11.53125 15.46875 -10.375 L 7.703125 -6.9375 C 8.441406 -6.132812 9.332031 -5.535156 10.375 -5.140625 C 11.414062 -4.742188 12.613281 -4.546875 13.96875 -4.546875 C 16.03125 -4.546875 17.773438 -4.96875 19.203125 -5.8125 C 20.484375 -6.5625 21.503906 -6.9375 22.265625 -6.9375 C 23.867188 -6.9375 24.671875 -6.160156 24.671875 -4.609375 C 24.671875 -2.859375 23.382812 -1.429688 20.8125 -0.328125 C 18.664062 0.597656 16.382812 1.0625 13.96875 1.0625 Z M 13.34375 -18.515625 C 11.914062 -18.515625 10.691406 -18.035156 9.671875 -17.078125 C 8.660156 -16.128906 7.847656 -14.703125 7.234375 -12.796875 C 8.972656 -13.546875 10.703125 -14.289062 12.421875 -15.03125 C 14.503906 -15.96875 16.160156 -16.835938 17.390625 -17.640625 C 16.359375 -18.222656 15.007812 -18.515625 13.34375 -18.515625 Z M 13.34375 -18.515625 "/></g></g></g><g fill="#000000" fill-opacity="1"><g transform="translate(248.940048, 112.30447)"><g><path d="M 18.625 -18.5625 C 18.300781 -18.5625 17.921875 -18.570312 17.484375 -18.59375 C 17.046875 -18.613281 16.664062 -18.625 16.34375 -18.625 C 15.71875 -18.625 14.988281 -18.5625 14.15625 -18.4375 C 14.4375 -12.226562 14.578125 -8.171875 14.578125 -6.265625 C 14.578125 -6.066406 14.582031 -5.691406 14.59375 -5.140625 C 14.613281 -4.597656 14.625 -4.160156 14.625 -3.828125 C 14.625 -0.296875 13.507812 1.46875 11.28125 1.46875 C 10.425781 1.46875 9.691406 1.207031 9.078125 0.6875 C 8.398438 0.132812 8.0625 -0.554688 8.0625 -1.390625 C 8.0625 -1.941406 8.082031 -2.769531 8.125 -3.875 C 8.175781 -4.976562 8.203125 -5.804688 8.203125 -6.359375 C 8.203125 -8.222656 8.066406 -12.207031 7.796875 -18.3125 C 6.835938 -18.351562 5.394531 -18.476562 3.46875 -18.6875 C 1.539062 -18.894531 0.578125 -19.890625 0.578125 -21.671875 C 0.578125 -22.535156 0.867188 -23.265625 1.453125 -23.859375 C 2.035156 -24.460938 2.789062 -24.765625 3.71875 -24.765625 C 4.28125 -24.765625 5.582031 -24.671875 7.625 -24.484375 C 7.613281 -24.972656 7.578125 -25.785156 7.515625 -26.921875 C 7.453125 -27.910156 7.421875 -28.675781 7.421875 -29.21875 C 7.421875 -30.070312 7.734375 -30.78125 8.359375 -31.34375 C 8.992188 -31.914062 9.757812 -32.203125 10.65625 -32.203125 C 12.925781 -32.203125 14.0625 -30.289062 14.0625 -26.46875 L 14.015625 -24.578125 C 14.972656 -24.710938 15.75 -24.78125 16.34375 -24.78125 C 18.113281 -24.78125 19.320312 -24.664062 19.96875 -24.4375 C 21.195312 -24.007812 21.8125 -23.070312 21.8125 -21.625 C 21.8125 -20.75 21.507812 -20.019531 20.90625 -19.4375 C 20.3125 -18.851562 19.550781 -18.5625 18.625 -18.5625 Z M 18.625 -18.5625 "/></g></g></g><g fill="#000000" fill-opacity="1"><g transform="translate(271.191078, 112.30447)"><g><path d="M 18.625 -18.5625 C 18.300781 -18.5625 17.921875 -18.570312 17.484375 -18.59375 C 17.046875 -18.613281 16.664062 -18.625 16.34375 -18.625 C 15.71875 -18.625 14.988281 -18.5625 14.15625 -18.4375 C 14.4375 -12.226562 14.578125 -8.171875 14.578125 -6.265625 C 14.578125 -6.066406 14.582031 -5.691406 14.59375 -5.140625 C 14.613281 -4.597656 14.625 -4.160156 14.625 -3.828125 C 14.625 -0.296875 13.507812 1.46875 11.28125 1.46875 C 10.425781 1.46875 9.691406 1.207031 9.078125 0.6875 C 8.398438 0.132812 8.0625 -0.554688 8.0625 -1.390625 C 8.0625 -1.941406 8.082031 -2.769531 8.125 -3.875 C 8.175781 -4.976562 8.203125 -5.804688 8.203125 -6.359375 C 8.203125 -8.222656 8.066406 -12.207031 7.796875 -18.3125 C 6.835938 -18.351562 5.394531 -18.476562 3.46875 -18.6875 C 1.539062 -18.894531 0.578125 -19.890625 0.578125 -21.671875 C 0.578125 -22.535156 0.867188 -23.265625 1.453125 -23.859375 C 2.035156 -24.460938 2.789062 -24.765625 3.71875 -24.765625 C 4.28125 -24.765625 5.582031 -24.671875 7.625 -24.484375 C 7.613281 -24.972656 7.578125 -25.785156 7.515625 -26.921875 C 7.453125 -27.910156 7.421875 -28.675781 7.421875 -29.21875 C 7.421875 -30.070312 7.734375 -30.78125 8.359375 -31.34375 C 8.992188 -31.914062 9.757812 -32.203125 10.65625 -32.203125 C 12.925781 -32.203125 14.0625 -30.289062 14.0625 -26.46875 L 14.015625 -24.578125 C 14.972656 -24.710938 15.75 -24.78125 16.34375 -24.78125 C 18.113281 -24.78125 19.320312 -24.664062 19.96875 -24.4375 C 21.195312 -24.007812 21.8125 -23.070312 21.8125 -21.625 C 21.8125 -20.75 21.507812 -20.019531 20.90625 -19.4375 C 20.3125 -18.851562 19.550781 -18.5625 18.625 -18.5625 Z M 18.625 -18.5625 "/></g></g></g><g fill="#000000" fill-opacity="1"><g transform="translate(293.442107, 112.30447)"><g><path d="M 7.609375 -27.71875 C 6.628906 -27.71875 5.773438 -28.046875 5.046875 -28.703125 C 4.328125 -29.367188 3.96875 -30.175781 3.96875 -31.125 C 3.96875 -32.082031 4.328125 -32.890625 5.046875 -33.546875 C 5.773438 -34.203125 6.628906 -34.53125 7.609375 -34.53125 C 8.585938 -34.53125 9.4375 -34.203125 10.15625 -33.546875 C 10.875 -32.890625 11.234375 -32.082031 11.234375 -31.125 C 11.234375 -30.175781 10.875 -29.367188 10.15625 -28.703125 C 9.4375 -28.046875 8.585938 -27.71875 7.609375 -27.71875 Z M 9.5625 -10.8125 C 9.5625 -9.9375 9.585938 -8.53125 9.640625 -6.59375 C 9.703125 -4.65625 9.734375 -3.25 9.734375 -2.375 C 9.734375 -1.476562 9.429688 -0.742188 8.828125 -0.171875 C 8.234375 0.398438 7.472656 0.6875 6.546875 0.6875 C 5.628906 0.6875 4.867188 0.398438 4.265625 -0.171875 C 3.660156 -0.742188 3.359375 -1.476562 3.359375 -2.375 C 3.359375 -3.25 3.332031 -4.65625 3.28125 -6.59375 C 3.226562 -8.53125 3.203125 -9.9375 3.203125 -10.8125 C 3.203125 -12.175781 3.28125 -13.890625 3.4375 -15.953125 C 3.59375 -18.015625 3.671875 -19.726562 3.671875 -21.09375 C 3.671875 -21.988281 3.96875 -22.722656 4.5625 -23.296875 C 5.164062 -23.867188 5.925781 -24.15625 6.84375 -24.15625 C 7.769531 -24.15625 8.53125 -23.867188 9.125 -23.296875 C 9.726562 -22.722656 10.03125 -21.988281 10.03125 -21.09375 C 10.03125 -19.726562 9.953125 -18.015625 9.796875 -15.953125 C 9.640625 -13.890625 9.5625 -12.175781 9.5625 -10.8125 Z M 9.5625 -10.8125 "/></g></g></g><g fill="#000000" fill-opacity="1"><g transform="translate(306.677431, 112.30447)"><g><path d="M 13.296875 -23.671875 C 15.359375 -23.859375 16.835938 -23.953125 17.734375 -23.953125 C 20.609375 -23.953125 22.046875 -22.96875 22.046875 -21 C 22.046875 -18.96875 20.515625 -18 17.453125 -18.09375 C 16.484375 -18.125 15.015625 -18.054688 13.046875 -17.890625 C 12.984375 -16.265625 12.96875 -14.191406 13 -11.671875 C 13.0625 -8.035156 13.09375 -5.96875 13.09375 -5.46875 C 13.09375 -2.65625 12.914062 -0.425781 12.5625 1.21875 C 12.207031 2.863281 11.191406 3.6875 9.515625 3.6875 C 8.660156 3.6875 7.910156 3.410156 7.265625 2.859375 C 6.628906 2.304688 6.3125 1.609375 6.3125 0.765625 C 6.3125 0.566406 6.328125 0.375 6.359375 0.1875 C 6.734375 -2.007812 6.921875 -4.078125 6.921875 -6.015625 L 6.921875 -17.546875 C 6.640625 -17.523438 6.128906 -17.460938 5.390625 -17.359375 C 4.804688 -17.285156 4.363281 -17.25 4.0625 -17.25 C 3.125 -17.25 2.347656 -17.519531 1.734375 -18.0625 C 1.117188 -18.613281 0.8125 -19.347656 0.8125 -20.265625 C 0.8125 -21.691406 1.5625 -22.628906 3.0625 -23.078125 C 3.738281 -23.273438 5.082031 -23.40625 7.09375 -23.46875 C 7.113281 -23.75 7.21875 -24.617188 7.40625 -26.078125 C 7.832031 -29.503906 8.757812 -32.054688 10.1875 -33.734375 C 11.96875 -35.816406 14.707031 -36.859375 18.40625 -36.859375 C 21.21875 -36.859375 22.625 -35.851562 22.625 -33.84375 C 22.625 -31.84375 21.316406 -30.84375 18.703125 -30.84375 C 16.835938 -30.84375 15.484375 -30.191406 14.640625 -28.890625 C 14.003906 -27.921875 13.582031 -26.40625 13.375 -24.34375 Z M 13.296875 -23.671875 "/></g></g></g><g fill="#000000" fill-opacity="1"><g transform="translate(330.680872, 112.30447)"><g><path d="M 25.265625 -19.484375 C 23.585938 -15.992188 20.9375 -10.515625 17.3125 -3.046875 C 15.34375 0.960938 13.84375 4.289062 12.8125 6.9375 C 12.488281 7.894531 11.984375 9.3125 11.296875 11.1875 C 10.742188 12.625 9.757812 13.34375 8.34375 13.34375 C 7.46875 13.34375 6.695312 13.054688 6.03125 12.484375 C 5.375 11.921875 5.046875 11.210938 5.046875 10.359375 C 5.046875 8.921875 6.675781 4.679688 9.9375 -2.359375 C 8.25 -5.691406 5.566406 -10.597656 1.890625 -17.078125 C 1.523438 -17.660156 1.148438 -18.253906 0.765625 -18.859375 C 0.347656 -19.566406 0.140625 -20.210938 0.140625 -20.796875 C 0.140625 -21.628906 0.46875 -22.359375 1.125 -22.984375 C 1.789062 -23.617188 2.550781 -23.9375 3.40625 -23.9375 C 4.425781 -23.9375 5.21875 -23.554688 5.78125 -22.796875 C 7.96875 -19.890625 10.515625 -15.519531 13.421875 -9.6875 C 15.066406 -13.320312 16.066406 -15.519531 16.421875 -16.28125 C 17.503906 -18.570312 18.570312 -20.582031 19.625 -22.3125 C 20.28125 -23.425781 21.1875 -23.984375 22.34375 -23.984375 C 23.195312 -23.984375 23.960938 -23.6875 24.640625 -23.09375 C 25.316406 -22.507812 25.65625 -21.796875 25.65625 -20.953125 C 25.65625 -20.515625 25.523438 -20.023438 25.265625 -19.484375 Z M 25.265625 -19.484375 "/></g></g></g></g></g></svg>
